<svg width="980" height="340" viewBox="0 0 980 340" fill="none" xmlns="http://www.w3.org/2000/svg">
  <defs>
    <linearGradient id="card" x1="490" y1="0" x2="490" y2="340" gradientUnits="userSpaceOnUse">
      <stop stop-color="#152134"/>
      <stop offset="1" stop-color="#0C131E"/>
    </linearGradient>
    <linearGradient id="accent" x1="0" y1="0" x2="980" y2="0" gradientUnits="userSpaceOnUse">
      <stop stop-color="#58A6FF"/>
      <stop offset="1" stop-color="#5EEAD4"/>
    </linearGradient>
  </defs>
  <rect x="1" y="1" width="978" height="338" rx="22" fill="url(#card)" stroke="#274164"/>
  <path d="M120 250H860" stroke="url(#accent)" stroke-opacity="0.3"/>
  <path d="M490 90V250" stroke="url(#accent)" stroke-opacity="0.3"/>
  <circle cx="490" cy="170" r="44" stroke="#58A6FF" stroke-opacity="0.45"/>
  <path d="M282 132C315 116 352 116 385 132L430 155C447 164 458 181 458 200V216C458 234 444 248 426 248H254C236 248 222 234 222 216V200C222 181 233 164 250 155L282 132Z" fill="#111C2A" stroke="#3A5D87"/>
  <path d="M598 132C631 116 668 116 701 132L733 155C750 164 761 181 761 200V216C761 234 747 248 729 248H557C539 248 525 234 525 216V200C525 181 536 164 553 155L598 132Z" fill="#111C2A" stroke="#3A5D87"/>
  <rect x="306" y="176" width="46" height="10" rx="5" fill="#58A6FF"/>
  <rect x="324" y="158" width="10" height="46" rx="5" fill="#58A6FF"/>
  <circle cx="654" cy="173" r="9" fill="#5EEAD4"/>
  <circle cx="679" cy="198" r="9" fill="#58A6FF"/>
  <circle cx="631" cy="198" r="9" fill="#7DD3FC"/>
  <path d="M75 292C208 236 353 208 490 208C627 208 772 236 905 292" stroke="#58A6FF" stroke-opacity="0.22" stroke-width="2"/>
</svg>
