<svg width="860" height="300" viewBox="0 0 860 300" fill="none" xmlns="http://www.w3.org/2000/svg">
  <defs>
    <linearGradient id="bg" x1="430" y1="0" x2="430" y2="300" gradientUnits="userSpaceOnUse">
      <stop stop-color="#15253A"/>
      <stop offset="1" stop-color="#0D1520"/>
    </linearGradient>
  </defs>
  <rect x="1" y="1" width="858" height="298" rx="22" fill="url(#bg)" stroke="#2D4A6D"/>
  <rect x="74" y="52" width="276" height="196" rx="12" fill="#111D2E" stroke="#3B5E88"/>
  <path d="M132 122H292M132 156H276M132 190H246" stroke="#355A84" stroke-width="10" stroke-linecap="round"/>
  <path d="M212 90V162M212 90L186 116M212 90L238 116" stroke="#58A6FF" stroke-width="9" stroke-linecap="round" stroke-linejoin="round"/>
  <rect x="408" y="78" width="380" height="170" rx="12" fill="#101B2A" stroke="#34547C"/>
  <path d="M446 214L512 168L570 190L640 132L750 100" stroke="#5EEAD4" stroke-width="5" stroke-linecap="round" stroke-linejoin="round"/>
  <circle cx="512" cy="168" r="7" fill="#58A6FF"/>
  <circle cx="570" cy="190" r="7" fill="#58A6FF"/>
  <circle cx="640" cy="132" r="7" fill="#58A6FF"/>
  <circle cx="750" cy="100" r="7" fill="#58A6FF"/>
  <rect x="430" y="230" width="164" height="10" rx="5" fill="#203751"/>
  <rect x="600" y="230" width="92" height="10" rx="5" fill="#203751"/>
</svg>
